<svg id="SvgjsSvg1001" width="288" height="288" xmlns="http://www.w3.org/2000/svg" version="1.1" xmlns:xlink="http://www.w3.org/1999/xlink" xmlns:svgjs="http://svgjs.com/svgjs"><defs id="SvgjsDefs1002"></defs><g id="SvgjsG1008"><svg xmlns="http://www.w3.org/2000/svg" viewBox="0 0 32 32" width="288" height="288"><path d="M21.94,29.64A6.13,6.13,0,0,0,17,25.08V17A11,11,0,0,0,27,6a1,1,0,0,0-1-1H6A1,1,0,0,0,5,6,11,11,0,0,0,15,17v8.13a6.13,6.13,0,0,0-4.94,4.56l0,.12a1,1,0,0,0,.18.86A1,1,0,0,0,11,31H21a1,1,0,0,0,.79-.38,1,1,0,0,0,.18-.86Z" fill="#e3e3e3" class="color000 svgShape"></path><path d="M14 22.07H4.44a1.44 1.44 0 110-2.88H14v-2H4.44a3.44 3.44 0 000 6.88H14zM19.07 22.07H18v2h1.07a8.61 8.61 0 016.12 2.53 1 1 0 00.71.3 1 1 0 00.7-1.71A10.57 10.57 0 0019.07 22.07zM21.91 1H18.49a10.74 10.74 0 00-5.15 1.31 1 1 0 00-.41 1.35 1 1 0 001.36.41A8.8 8.8 0 0118.49 3h3.42a7.1 7.1 0 010 14.19H18v2h3.91A9.1 9.1 0 0021.91 1z" fill="#e3e3e3" class="color000 svgShape"></path></svg></g></svg>